<svg width="8" height="12" viewBox="0 0 8 12" fill="none" xmlns="http://www.w3.org/2000/svg">
<path d="M1.66683 4.66667C1.40312 4.66667 1.14534 4.74487 0.92607 4.89137C0.706804 5.03788 0.535907 5.24612 0.434991 5.48976C0.334074 5.73339 0.307669 6.00148 0.359116 6.26012C0.410563 6.51876 0.537551 6.75634 0.724021 6.94281C0.910491 7.12928 1.14807 7.25627 1.40671 7.30771C1.66535 7.35916 1.93344 7.33276 2.17707 7.23184C2.42071 7.13092 2.62895 6.96003 2.77546 6.74076C2.92196 6.52149 3.00016 6.26371 3.00016 6C3.00016 5.64638 2.85969 5.30724 2.60964 5.05719C2.35959 4.80714 2.02045 4.66667 1.66683 4.66667ZM1.66683 9.33333C1.40312 9.33333 1.14534 9.41153 0.92607 9.55804C0.706804 9.70455 0.535907 9.91279 0.434991 10.1564C0.334074 10.4001 0.307669 10.6681 0.359116 10.9268C0.410563 11.1854 0.537551 11.423 0.724021 11.6095C0.910491 11.7959 1.14807 11.9229 1.40671 11.9744C1.66535 12.0258 1.93344 11.9994 2.17707 11.8985C2.42071 11.7976 2.62895 11.6267 2.77546 11.4074C2.92196 11.1882 3.00016 10.9304 3.00016 10.6667C3.00016 10.313 2.85969 9.97391 2.60964 9.72386C2.35959 9.47381 2.02045 9.33333 1.66683 9.33333ZM6.3335 2.66667C6.5972 2.66667 6.85499 2.58847 7.07426 2.44196C7.29352 2.29545 7.46442 2.08721 7.56534 1.84358C7.66625 1.59994 7.69266 1.33185 7.64121 1.07321C7.58976 0.814572 7.46278 0.576995 7.27631 0.390525C7.08984 0.204055 6.85226 0.0770672 6.59362 0.0256202C6.33498 -0.0258267 6.06689 0.000577708 5.82325 0.101495C5.57962 0.202411 5.37138 0.373308 5.22487 0.592574C5.07836 0.811839 5.00016 1.06963 5.00016 1.33333C5.00016 1.68696 5.14064 2.02609 5.39069 2.27614C5.64074 2.52619 5.97987 2.66667 6.3335 2.66667ZM1.66683 5.59581e-07C1.40312 5.59581e-07 1.14534 0.0781991 0.92607 0.224708C0.706804 0.371216 0.535907 0.579454 0.434991 0.823089C0.334074 1.06672 0.307669 1.33481 0.359116 1.59345C0.410563 1.8521 0.537551 2.08967 0.724021 2.27614C0.910491 2.46261 1.14807 2.5896 1.40671 2.64105C1.66535 2.69249 1.93344 2.66609 2.17707 2.56517C2.42071 2.46426 2.62895 2.29336 2.77546 2.07409C2.92196 1.85483 3.00016 1.59704 3.00016 1.33333C3.00016 0.979712 2.85969 0.640573 2.60964 0.390525C2.35959 0.140476 2.02045 5.59581e-07 1.66683 5.59581e-07ZM6.3335 9.33333C6.06979 9.33333 5.812 9.41153 5.59274 9.55804C5.37347 9.70455 5.20257 9.91279 5.10166 10.1564C5.00074 10.4001 4.97434 10.6681 5.02578 10.9268C5.07723 11.1854 5.20422 11.423 5.39069 11.6095C5.57716 11.7959 5.81473 11.9229 6.07338 11.9744C6.33202 12.0258 6.60011 11.9994 6.84374 11.8985C7.08738 11.7976 7.29561 11.6267 7.44212 11.4074C7.58863 11.1882 7.66683 10.9304 7.66683 10.6667C7.66683 10.313 7.52635 9.97391 7.27631 9.72386C7.02626 9.47381 6.68712 9.33333 6.3335 9.33333ZM6.3335 4.66667C6.06979 4.66667 5.812 4.74487 5.59274 4.89137C5.37347 5.03788 5.20257 5.24612 5.10166 5.48976C5.00074 5.73339 4.97434 6.00148 5.02578 6.26012C5.07723 6.51876 5.20422 6.75634 5.39069 6.94281C5.57716 7.12928 5.81473 7.25627 6.07338 7.30771C6.33202 7.35916 6.60011 7.33276 6.84374 7.23184C7.08738 7.13092 7.29561 6.96003 7.44212 6.74076C7.58863 6.52149 7.66683 6.26371 7.66683 6C7.66683 5.64638 7.52635 5.30724 7.27631 5.05719C7.02626 4.80714 6.68712 4.66667 6.3335 4.66667Z" fill="#7E7E7E"/>
</svg>
