<svg width="6" height="8" viewBox="0 0 6 8" fill="none" xmlns="http://www.w3.org/2000/svg">
<path d="M4.88663 3.52777L2.05996 0.701105C1.99799 0.638619 1.92425 0.589023 1.84301 0.555177C1.76177 0.521332 1.67464 0.503906 1.58663 0.503906C1.49862 0.503906 1.41148 0.521332 1.33024 0.555177C1.249 0.589023 1.17527 0.638619 1.1133 0.701105C0.989128 0.826013 0.919434 0.994981 0.919434 1.17111C0.919434 1.34723 0.989128 1.5162 1.1133 1.64111L3.4733 4.00111L1.1133 6.3611C0.989128 6.48601 0.919434 6.65498 0.919434 6.83111C0.919434 7.00723 0.989128 7.1762 1.1133 7.30111C1.17559 7.36289 1.24947 7.41178 1.33069 7.44495C1.41192 7.47813 1.49889 7.49495 1.58663 7.49444C1.67437 7.49495 1.76134 7.47813 1.84257 7.44495C1.92379 7.41178 1.99767 7.36289 2.05996 7.30111L4.88663 4.47444C4.94911 4.41246 4.99871 4.33873 5.03256 4.25749C5.0664 4.17625 5.08383 4.08911 5.08383 4.00111C5.08383 3.9131 5.0664 3.82596 5.03256 3.74472C4.99871 3.66348 4.94911 3.58975 4.88663 3.52777Z" fill="#7E7E7E"/>
</svg>
