<svg width="12" height="14" viewBox="0 0 12 14" fill="none" xmlns="http://www.w3.org/2000/svg">
<path d="M11.3333 2.9987H8.66667V2.33203C8.66667 1.8016 8.45595 1.29289 8.08088 0.917818C7.70581 0.542745 7.1971 0.332031 6.66667 0.332031H5.33333C4.8029 0.332031 4.29419 0.542745 3.91912 0.917818C3.54405 1.29289 3.33333 1.8016 3.33333 2.33203V2.9987H0.666667C0.489856 2.9987 0.320286 3.06894 0.195262 3.19396C0.0702379 3.31898 0 3.48855 0 3.66536C0 3.84218 0.0702379 4.01174 0.195262 4.13677C0.320286 4.26179 0.489856 4.33203 0.666667 4.33203H1.33333V11.6654C1.33333 12.1958 1.54405 12.7045 1.91912 13.0796C2.29419 13.4546 2.8029 13.6654 3.33333 13.6654H8.66667C9.1971 13.6654 9.70581 13.4546 10.0809 13.0796C10.456 12.7045 10.6667 12.1958 10.6667 11.6654V4.33203H11.3333C11.5101 4.33203 11.6797 4.26179 11.8047 4.13677C11.9298 4.01174 12 3.84218 12 3.66536C12 3.48855 11.9298 3.31898 11.8047 3.19396C11.6797 3.06894 11.5101 2.9987 11.3333 2.9987ZM4.66667 2.33203C4.66667 2.15522 4.7369 1.98565 4.86193 1.86063C4.98695 1.7356 5.15652 1.66536 5.33333 1.66536H6.66667C6.84348 1.66536 7.01305 1.7356 7.13807 1.86063C7.2631 1.98565 7.33333 2.15522 7.33333 2.33203V2.9987H4.66667V2.33203ZM9.33333 11.6654C9.33333 11.8422 9.2631 12.0117 9.13807 12.1368C9.01305 12.2618 8.84348 12.332 8.66667 12.332H3.33333C3.15652 12.332 2.98695 12.2618 2.86193 12.1368C2.7369 12.0117 2.66667 11.8422 2.66667 11.6654V4.33203H9.33333V11.6654Z" fill="#DE5268"/>
</svg>
