<svg width="34" height="28" viewBox="0 0 34 28" fill="none" xmlns="http://www.w3.org/2000/svg">
<path d="M27.6991 7.69869C26.6807 5.35869 24.9232 3.41715 22.6959 2.17156C20.4685 0.925981 17.8942 0.445073 15.3674 0.802534C12.8405 1.16 10.5006 2.33611 8.70618 4.15064C6.91173 5.96518 5.76173 8.31804 5.43242 10.8487C3.84339 11.2292 2.44945 12.1801 1.51531 13.5207C0.581174 14.8613 0.171892 16.4982 0.365191 18.1207C0.55849 19.7432 1.34091 21.2382 2.56386 22.3218C3.78682 23.4054 5.36513 24.0021 6.99908 23.9987C7.44111 23.9987 7.86504 23.8231 8.1776 23.5105C8.49016 23.198 8.66575 22.774 8.66575 22.332C8.66575 21.89 8.49016 21.4661 8.1776 21.1535C7.86504 20.8409 7.44111 20.6654 6.99908 20.6654C6.11503 20.6654 5.26718 20.3142 4.64206 19.689C4.01694 19.0639 3.66575 18.2161 3.66575 17.332C3.66575 16.448 4.01694 15.6001 4.64206 14.975C5.26718 14.3499 6.11503 13.9987 6.99908 13.9987C7.44111 13.9987 7.86504 13.8231 8.1776 13.5105C8.49016 13.198 8.66575 12.774 8.66575 12.332C8.67001 10.3608 9.37289 8.45494 10.6495 6.95299C11.9262 5.45104 13.6939 4.45027 15.6387 4.12848C17.5834 3.80668 19.5793 4.1847 21.2717 5.19537C22.9641 6.20604 24.2434 7.78392 24.8824 9.64869C24.9777 9.93509 25.1489 10.1902 25.3779 10.3869C25.6069 10.5836 25.8849 10.7144 26.1824 10.7654C27.2925 10.9751 28.2989 11.5547 29.0375 12.4096C29.7761 13.2645 30.2034 14.3443 30.2497 15.4731C30.2961 16.6019 29.9589 17.7131 29.2929 18.6257C28.627 19.5383 27.6716 20.1985 26.5824 20.4987C26.1537 20.6092 25.7863 20.8855 25.5613 21.2668C25.3363 21.6481 25.2719 22.1033 25.3824 22.532C25.4929 22.9608 25.7692 23.3281 26.1506 23.5531C26.5319 23.7782 26.987 23.8425 27.4158 23.732C29.1697 23.2685 30.7245 22.2453 31.8441 20.8178C32.9636 19.3903 33.5868 17.6364 33.6188 15.8225C33.6509 14.0086 33.0901 12.2338 32.0217 10.7676C30.9533 9.30135 29.4356 8.22385 27.6991 7.69869ZM18.1824 11.1487C18.0239 10.997 17.837 10.878 17.6324 10.7987C17.2266 10.632 16.7715 10.632 16.3658 10.7987C16.1612 10.878 15.9743 10.997 15.8158 11.1487L10.8158 16.1487C10.5019 16.4625 10.3256 16.8882 10.3256 17.332C10.3256 17.7759 10.5019 18.2015 10.8158 18.5154C11.1296 18.8292 11.5552 19.0055 11.9991 19.0055C12.4429 19.0055 12.8686 18.8292 13.1824 18.5154L15.3324 16.3487V25.6654C15.3324 26.1074 15.508 26.5313 15.8206 26.8439C16.1331 27.1564 16.5571 27.332 16.9991 27.332C17.4411 27.332 17.865 27.1564 18.1776 26.8439C18.4902 26.5313 18.6658 26.1074 18.6658 25.6654V16.3487L20.8158 18.5154C20.9707 18.6716 21.155 18.7956 21.3581 18.8802C21.5612 18.9648 21.7791 19.0083 21.9991 19.0083C22.2191 19.0083 22.4369 18.9648 22.64 18.8802C22.8431 18.7956 23.0275 18.6716 23.1824 18.5154C23.3386 18.3604 23.4626 18.1761 23.5472 17.973C23.6319 17.7699 23.6754 17.552 23.6754 17.332C23.6754 17.112 23.6319 16.8942 23.5472 16.6911C23.4626 16.488 23.3386 16.3036 23.1824 16.1487L18.1824 11.1487Z" fill="#7E7E7E"/>
</svg>
