<svg width="6" height="8" viewBox="0 0 6 8" fill="none" xmlns="http://www.w3.org/2000/svg">
<path d="M2.52655 4.00111L4.88655 1.64111C5.01072 1.5162 5.08041 1.34723 5.08041 1.17111C5.08041 0.994981 5.01072 0.826013 4.88655 0.701105C4.82457 0.638619 4.75084 0.589023 4.6696 0.555177C4.58836 0.521332 4.50122 0.503906 4.41321 0.503906C4.32521 0.503906 4.23807 0.521332 4.15683 0.555177C4.07559 0.589023 4.00186 0.638619 3.93988 0.701105L1.11321 3.52777C1.05073 3.58975 1.00113 3.66348 0.967287 3.74472C0.933441 3.82596 0.916016 3.9131 0.916016 4.00111C0.916016 4.08911 0.933441 4.17625 0.967287 4.25749C1.00113 4.33873 1.05073 4.41246 1.11321 4.47444L3.93988 7.33444C4.00217 7.39623 4.07605 7.44511 4.15728 7.47829C4.2385 7.51146 4.32548 7.52828 4.41321 7.52777C4.50095 7.52828 4.58793 7.51146 4.66915 7.47829C4.75038 7.44511 4.82425 7.39623 4.88655 7.33444C5.01072 7.20953 5.08041 7.04056 5.08041 6.86444C5.08041 6.68831 5.01072 6.51935 4.88655 6.39444L2.52655 4.00111Z" fill="#7E7E7E"/>
</svg>
