<svg width="16" height="16" viewBox="0 0 16 16" fill="none" xmlns="http://www.w3.org/2000/svg">
<path d="M9.33333 7.33398H6.66667C6.31304 7.33398 5.97391 7.19351 5.72386 6.94346C5.47381 6.69341 5.33333 6.35427 5.33333 6.00065C5.33333 5.64703 5.47381 5.30789 5.72386 5.05784C5.97391 4.80779 6.31304 4.66732 6.66667 4.66732H10C10.1768 4.66732 10.3464 4.73756 10.4714 4.86258C10.5964 4.9876 10.6667 5.15717 10.6667 5.33398C10.6667 5.5108 10.7369 5.68036 10.8619 5.80539C10.987 5.93041 11.1565 6.00065 11.3333 6.00065C11.5101 6.00065 11.6797 5.93041 11.8047 5.80539C11.9298 5.68036 12 5.5108 12 5.33398C12 4.80355 11.7893 4.29484 11.4142 3.91977C11.0391 3.5447 10.5304 3.33398 10 3.33398H8.66667V2.00065C8.66667 1.82384 8.59643 1.65427 8.4714 1.52925C8.34638 1.40422 8.17681 1.33398 8 1.33398C7.82319 1.33398 7.65362 1.40422 7.5286 1.52925C7.40357 1.65427 7.33333 1.82384 7.33333 2.00065V3.33398H6.66667C5.95942 3.33398 5.28115 3.61494 4.78105 4.11503C4.28095 4.61513 4 5.29341 4 6.00065C4 6.70789 4.28095 7.38617 4.78105 7.88627C5.28115 8.38637 5.95942 8.66732 6.66667 8.66732H9.33333C9.68696 8.66732 10.0261 8.80779 10.2761 9.05784C10.5262 9.30789 10.6667 9.64703 10.6667 10.0007C10.6667 10.3543 10.5262 10.6934 10.2761 10.9435C10.0261 11.1935 9.68696 11.334 9.33333 11.334H6C5.82319 11.334 5.65362 11.2637 5.5286 11.1387C5.40357 11.0137 5.33333 10.8441 5.33333 10.6673C5.33333 10.4905 5.2631 10.3209 5.13807 10.1959C5.01305 10.0709 4.84348 10.0007 4.66667 10.0007C4.48986 10.0007 4.32029 10.0709 4.19526 10.1959C4.07024 10.3209 4 10.4905 4 10.6673C4 11.1978 4.21071 11.7065 4.58579 12.0815C4.96086 12.4566 5.46957 12.6673 6 12.6673H7.33333V14.0007C7.33333 14.1775 7.40357 14.347 7.5286 14.4721C7.65362 14.5971 7.82319 14.6673 8 14.6673C8.17681 14.6673 8.34638 14.5971 8.4714 14.4721C8.59643 14.347 8.66667 14.1775 8.66667 14.0007V12.6673H9.33333C10.0406 12.6673 10.7189 12.3864 11.219 11.8863C11.719 11.3862 12 10.7079 12 10.0007C12 9.29341 11.719 8.61513 11.219 8.11503C10.7189 7.61494 10.0406 7.33398 9.33333 7.33398Z" fill="#7E7E7E"/>
</svg>
