<svg width="16" height="16" viewBox="0 0 16 16" fill="none" xmlns="http://www.w3.org/2000/svg">
<path fill-rule="evenodd" clip-rule="evenodd" d="M5.10901 5.31858C5.26989 4.64288 5.87363 4.16602 6.56822 4.16602H9.43292C10.1275 4.16602 10.7313 4.64288 10.8921 5.31858L11.5271 7.98528C11.7515 8.92782 11.0368 9.83268 10.0679 9.83268H5.9333C4.96438 9.83268 4.24967 8.92782 4.47409 7.98528L5.10901 5.31858ZM6.56822 5.16602C6.33669 5.16602 6.13544 5.32497 6.08182 5.5502L5.4469 8.21688C5.37209 8.53108 5.61033 8.83268 5.9333 8.83268H10.0679C10.3909 8.83268 10.6291 8.53108 10.5543 8.21688L9.91932 5.5502C9.86572 5.32497 9.66446 5.16602 9.43292 5.16602H6.56822Z" fill="#7E7E7E"/>
<path fill-rule="evenodd" clip-rule="evenodd" d="M1.77551 9.98658C1.93639 9.31085 2.54013 8.83398 3.23472 8.83398H6.09945C6.79403 8.83398 7.39776 9.31085 7.55863 9.98658L8.19356 12.6533C8.41803 13.5958 7.7033 14.5007 6.73436 14.5007H2.5998C1.63089 14.5007 0.916175 13.5958 1.14059 12.6533L1.77551 9.98658ZM3.23472 9.83398C3.00319 9.83398 2.80195 9.99292 2.74832 10.2182L2.1134 12.8849C2.03859 13.1991 2.27683 13.5007 2.5998 13.5007H6.73436C7.05736 13.5007 7.29556 13.1991 7.22076 12.8849L6.58586 10.2182C6.53223 9.99292 6.33098 9.83398 6.09945 9.83398H3.23472Z" fill="#7E7E7E"/>
<path fill-rule="evenodd" clip-rule="evenodd" d="M8.44202 9.98658C8.60296 9.31085 9.20669 8.83398 9.90122 8.83398H12.766C13.4606 8.83398 14.0643 9.31085 14.2252 9.98658L14.8601 12.6533C15.0846 13.5958 14.3698 14.5007 13.4009 14.5007H9.26636C8.29742 14.5007 7.58269 13.5958 7.80709 12.6533L8.44202 9.98658ZM9.90122 9.83398C9.66969 9.83398 9.46849 9.99292 9.41482 10.2182L8.77996 12.8849C8.70509 13.1991 8.94336 13.5007 9.26636 13.5007H13.4009C13.7239 13.5007 13.9621 13.1991 13.8873 12.8849L13.2524 10.2182C13.1988 9.99292 12.9975 9.83398 12.766 9.83398H9.90122Z" fill="#7E7E7E"/>
<path fill-rule="evenodd" clip-rule="evenodd" d="M8 1.5C8.27613 1.5 8.5 1.72386 8.5 2V2.66667C8.5 2.94281 8.27613 3.16667 8 3.16667C7.72387 3.16667 7.5 2.94281 7.5 2.66667V2C7.5 1.72386 7.72387 1.5 8 1.5Z" fill="#7E7E7E"/>
<path fill-rule="evenodd" clip-rule="evenodd" d="M12.3537 2.31246C12.5489 2.50772 12.5489 2.82431 12.3537 3.01957L11.687 3.68623C11.4917 3.88149 11.1752 3.88149 10.9799 3.68623C10.7847 3.49097 10.7847 3.17439 10.9799 2.97913L11.6466 2.31246C11.8419 2.1172 12.1584 2.1172 12.3537 2.31246Z" fill="#7E7E7E"/>
<path fill-rule="evenodd" clip-rule="evenodd" d="M3.64645 2.31246C3.84171 2.1172 4.15829 2.1172 4.35355 2.31246L5.02022 2.97913C5.21548 3.17439 5.21548 3.49097 5.02022 3.68623C4.82496 3.88149 4.50837 3.88149 4.31311 3.68623L3.64645 3.01957C3.45118 2.82431 3.45118 2.50772 3.64645 2.31246Z" fill="#7E7E7E"/>
</svg>
