<svg width="16" height="16" viewBox="0 0 16 16" fill="none" xmlns="http://www.w3.org/2000/svg">
<g clip-path="url(#clip0_4721_557074)">
<path d="M0.46875 16H8.96875C9.22766 16 9.4375 15.7902 9.4375 15.5312V15.0312C9.4375 14.5134 9.01782 14.0937 8.5 14.0937V13.5333C8.5 12.7913 7.89624 12.1875 7.15417 12.1875H2.28332C1.54126 12.1875 0.9375 12.7913 0.9375 13.5333V14.0937C0.419678 14.0937 0 14.5134 0 15.0312V15.5312C0 15.79 0.209961 16 0.46875 16Z" fill="#7E7E7E"/>
<path d="M5.86683 10.3236C6.17835 10.737 6.76625 10.8197 7.1797 10.508C7.59327 10.1965 7.67579 9.6086 7.36427 9.19503L4.54322 5.4515C4.23158 5.03792 3.64381 4.9554 3.23036 5.26693C2.81678 5.57857 2.73414 6.16634 3.04579 6.57991L5.86683 10.3236Z" fill="#7E7E7E"/>
<path d="M12.605 5.24537C12.9166 5.65882 13.5044 5.74146 13.918 5.42982C14.3314 5.1183 14.4141 4.53053 14.1024 4.11695L11.2814 0.373424C10.9699 -0.0401503 10.382 -0.122792 9.96852 0.188854C9.55507 0.500499 9.47243 1.08827 9.78408 1.50184L12.605 5.24537Z" fill="#7E7E7E"/>
<path d="M10.5488 7.96875C11.2417 7.44665 11.7618 6.79834 12.0872 6.11572L8.80469 1.75977C8.05884 1.8844 7.29236 2.20557 6.59936 2.72778C5.90649 3.24988 5.38635 3.89819 5.06104 4.58069L8.3435 8.93689C9.08935 8.81225 9.85583 8.49097 10.5488 7.96875Z" fill="#7E7E7E"/>
<path d="M11.8147 8.0918C11.5964 8.31421 11.3666 8.52747 11.1132 8.71851C10.8596 8.90942 10.5912 9.07166 10.3174 9.22021L10.9286 10.0314L12.426 8.90308L11.8147 8.0918Z" fill="#7E7E7E"/>
<path d="M12.9901 9.65039L11.4927 10.7787L14.3137 14.5223C14.6254 14.9359 15.2131 15.0184 15.6266 14.7069C16.0402 14.3953 16.1227 13.8075 15.8112 13.3939L12.9901 9.65039Z" fill="#7E7E7E"/>
</g>
<defs>
<clipPath id="clip0_4721_557074">
<rect width="16" height="16" fill="white"/>
</clipPath>
</defs>
</svg>
