<svg width="16" height="16" viewBox="0 0 16 16" fill="none" xmlns="http://www.w3.org/2000/svg">
<g clip-path="url(#clip0_4721_557081)">
<path d="M0.605957 10.9766H1.98535V15.5487H0.605957V10.9766Z" fill="#7E7E7E"/>
<path d="M9.14166 4.3156C8.11863 5.24166 8.5962 6.87075 8.5962 6.87075C8.72469 6.53863 9.06408 6.51923 9.25075 6.53863C9.40348 6.55317 9.5562 6.56287 9.71136 6.55802C12.4435 6.44651 12.2059 3.94711 12.2059 3.94711C12.1235 2.9556 11.8132 3.19802 11.8132 3.19802C11.1198 3.60529 10.378 3.80166 10.0144 3.87923C9.69196 3.94711 9.38651 4.09499 9.14166 4.3156Z" fill="#7E7E7E"/>
<path d="M8.77568 3.90045C8.79265 3.91499 8.80477 3.93439 8.82174 3.95136C9.11992 3.68226 9.49568 3.49317 9.91265 3.40348C9.99992 3.38408 10.109 3.35742 10.2351 3.3259C10.7272 1.86408 9.46659 0.821659 9.46659 0.821659C8.7078 0.179234 8.65932 0.571962 8.65932 0.571962C8.45811 1.35014 8.07023 2.01439 7.86901 2.32469C7.68962 2.60105 7.57811 2.92105 7.56114 3.25075C7.55871 3.28226 7.56114 3.31136 7.56114 3.34287C7.63386 3.36226 7.70417 3.37681 7.75992 3.39136C8.14538 3.47136 8.49689 3.64833 8.77568 3.90045Z" fill="#7E7E7E"/>
<path d="M7.92953 6.30195H8.01195C7.96831 5.7468 8.02407 4.96377 8.49922 4.31165C8.48225 4.29468 8.46528 4.27771 8.44831 4.26074C8.22528 4.05953 7.94892 3.9262 7.65316 3.86316C7.32104 3.79286 6.64468 3.61347 6.01437 3.24256C6.01437 3.24256 5.73074 3.02195 5.65559 3.92377C5.65559 3.92135 5.43983 6.20013 7.92953 6.30195Z" fill="#7E7E7E"/>
<path d="M10.2833 6.98242C10.1088 7.01394 9.92451 7.03091 9.73299 7.0406C9.69178 7.04303 9.64814 7.04303 9.60451 7.04303C9.48814 7.04303 9.36208 7.03576 9.20693 7.02121C9.18754 7.01879 9.16814 7.01879 9.15117 7.01879C9.09057 7.01879 9.05905 7.03091 9.0542 7.03333L8.84814 7.57151V8.92182H10.5088C10.4942 8.20424 10.4118 7.55212 10.2833 6.98242Z" fill="#7E7E7E"/>
<path d="M10.2445 10.8438C10.2906 10.8438 10.3342 10.8511 10.3778 10.8584C10.4506 10.4123 10.4966 9.92746 10.5088 9.40625H8.84814V10.8463H10.2445V10.8438Z" fill="#7E7E7E"/>
<path d="M6.43645 6.97852H4.24251C3.94675 7.56761 3.76978 8.22215 3.73584 8.91791H6.22069C6.23281 8.22458 6.30796 7.57003 6.43645 6.97852Z" fill="#7E7E7E"/>
<path d="M7.7407 10.5704C7.93949 10.6988 8.1504 10.7813 8.36373 10.8176V9.4043H6.70312C6.70797 9.68066 6.72737 9.9449 6.75161 10.2019C7.12979 10.2722 7.47161 10.3982 7.7407 10.5704Z" fill="#7E7E7E"/>
<path d="M8.13343 7.00666C8.131 7.00182 8.12858 6.99454 8.12616 6.98242H6.92858C6.80009 7.55212 6.72009 8.20424 6.70312 8.92182H8.36373V7.78L8.13343 7.00666Z" fill="#7E7E7E"/>
<path d="M12.0025 6.0789C11.8644 6.23648 11.7068 6.37708 11.5347 6.49587H12.6959C12.5432 6.26314 12.3735 6.04496 12.1819 5.84375C12.1286 5.92375 12.068 6.00375 12.0025 6.0789Z" fill="#7E7E7E"/>
<path d="M6.56219 6.47197C6.27128 6.32894 6.02159 6.13743 5.8131 5.89743C5.67734 5.74228 5.57068 5.57743 5.48583 5.41016C5.11249 5.72046 4.78522 6.08652 4.51855 6.49622H6.55492C6.55734 6.48894 6.55977 6.47925 6.56219 6.47197Z" fill="#7E7E7E"/>
<path d="M10.9941 8.91791H13.4789C13.445 8.22215 13.268 7.56761 12.9723 6.97852H10.7783C10.902 7.57003 10.9795 8.22458 10.9941 8.91791Z" fill="#7E7E7E"/>
<path d="M4.12613 10.7749C4.54067 10.3774 5.26552 10.1374 6.06552 10.1374C6.13097 10.1374 6.19643 10.1398 6.26188 10.1422C6.24007 9.89978 6.22552 9.65494 6.21825 9.40039H3.7334C3.75764 9.90706 3.85946 10.3943 4.02673 10.8477C4.06067 10.8258 4.09704 10.804 4.12613 10.7749Z" fill="#7E7E7E"/>
<path d="M10.8364 11.0184C10.9722 11.1032 11.0885 11.2123 11.1758 11.3456H12.6085L13.1031 11.0693C13.3213 10.5553 13.4473 9.99292 13.4764 9.40625H10.994C10.9819 9.97595 10.9261 10.5141 10.8364 11.0184Z" fill="#7E7E7E"/>
<path d="M15.2727 11.1002C15.0739 10.8165 14.6981 10.7292 14.3951 10.8989L10.9866 12.8068C10.7902 12.9838 10.5284 13.0905 10.2448 13.0905H7.50538C7.37205 13.0905 7.26296 12.9814 7.26296 12.848C7.26296 12.7147 7.37205 12.6056 7.50538 12.6056H10.2448C10.4072 12.6056 10.5551 12.545 10.669 12.4432C10.6763 12.4359 10.6836 12.4286 10.6908 12.4238C10.8096 12.3074 10.8824 12.145 10.8824 11.968C10.8824 11.6165 10.5963 11.3305 10.2448 11.3305H8.62296C8.23508 11.3305 7.83993 11.2092 7.48114 10.9789C7.12963 10.7535 6.61569 10.625 6.06781 10.625C5.39872 10.625 4.78538 10.8165 4.46538 11.1268C4.1066 11.4735 3.61205 11.6626 3.07629 11.6626H2.47266V14.8238C3.21205 14.6541 3.96841 14.5886 4.65932 14.5886C6.10902 14.5886 7.26781 14.8432 7.34296 14.8602C7.41326 14.8698 7.49811 14.882 7.58053 14.8917C8.99387 15.0638 10.4775 14.7462 11.7575 13.9971L15.0617 12.0602C15.2242 11.9656 15.3357 11.8105 15.3769 11.6262C15.4181 11.442 15.3817 11.2553 15.2727 11.1002Z" fill="#7E7E7E"/>
</g>
<defs>
<clipPath id="clip0_4721_557081">
<rect width="16" height="16" fill="white"/>
</clipPath>
</defs>
</svg>
