<svg width="16" height="16" viewBox="0 0 16 16" fill="none" xmlns="http://www.w3.org/2000/svg">
<g clip-path="url(#clip0_4721_557088)">
<path d="M9.5 14C9.5 14.2967 9.41203 14.5867 9.24721 14.8334C9.08238 15.08 8.84811 15.2723 8.57403 15.3858C8.29994 15.4994 7.99834 15.5291 7.70737 15.4712C7.41639 15.4133 7.14912 15.2704 6.93934 15.0607C6.72956 14.8509 6.5867 14.5836 6.52882 14.2926C6.47094 14.0017 6.50065 13.7001 6.61418 13.426C6.72771 13.1519 6.91997 12.9176 7.16665 12.7528C7.41332 12.588 7.70333 12.5 8 12.5C8.39783 12.5 8.77936 12.658 9.06066 12.9393C9.34197 13.2206 9.5 13.6022 9.5 14ZM14 11.5C13.7033 11.5 13.4133 11.588 13.1666 11.7528C12.92 11.9176 12.7277 12.1519 12.6142 12.426C12.5007 12.7001 12.4709 13.0017 12.5288 13.2926C12.5867 13.5836 12.7296 13.8509 12.9393 14.0607C13.1491 14.2704 13.4164 14.4133 13.7074 14.4712C13.9983 14.5291 14.2999 14.4994 14.574 14.3858C14.8481 14.2723 15.0824 14.08 15.2472 13.8334C15.412 13.5867 15.5 13.2967 15.5 13C15.5 12.6022 15.342 12.2206 15.0607 11.9393C14.7794 11.658 14.3978 11.5 14 11.5ZM2 11.5C1.70333 11.5 1.41332 11.588 1.16665 11.7528C0.919972 11.9176 0.727713 12.1519 0.614181 12.426C0.50065 12.7001 0.470945 13.0017 0.528823 13.2926C0.586701 13.5836 0.729562 13.8509 0.939341 14.0607C1.14912 14.2704 1.41639 14.4133 1.70737 14.4712C1.99834 14.5291 2.29994 14.4994 2.57403 14.3858C2.84811 14.2723 3.08238 14.08 3.24721 13.8334C3.41203 13.5867 3.5 13.2967 3.5 13C3.5 12.6022 3.34197 12.2206 3.06066 11.9393C2.77936 11.658 2.39783 11.5 2 11.5ZM8.5 11V10.33L11.28 9.135L12.28 10.93C12.3128 10.9871 12.3566 11.0372 12.4088 11.0774C12.461 11.1177 12.5206 11.1472 12.5842 11.1644C12.6478 11.1816 12.7142 11.186 12.7795 11.1776C12.8448 11.1691 12.9079 11.1478 12.965 11.115C13.0221 11.0822 13.0722 11.0384 13.1124 10.9862C13.1527 10.934 13.1822 10.8744 13.1994 10.8108C13.2165 10.7472 13.221 10.6808 13.2126 10.6155C13.2041 10.5502 13.1828 10.4871 13.15 10.43L11.935 8.245C11.8747 8.13808 11.7772 8.05707 11.661 8.01742C11.5448 7.97777 11.4181 7.98225 11.305 8.03L8 9.455L4.695 8.04C4.58191 7.99225 4.4552 7.98777 4.33902 8.02742C4.22284 8.06707 4.12531 8.14808 4.065 8.255L2.85 10.44C2.7837 10.5554 2.76594 10.6924 2.80063 10.8208C2.83533 10.9493 2.91963 11.0587 3.035 11.125C3.15037 11.1913 3.28735 11.2091 3.41582 11.1744C3.54428 11.1397 3.6537 11.0554 3.72 10.94L4.72 9.145L7.5 10.33V11C7.5 11.1326 7.55268 11.2598 7.64645 11.3536C7.74022 11.4473 7.86739 11.5 8 11.5C8.13261 11.5 8.25979 11.4473 8.35355 11.3536C8.44732 11.2598 8.5 11.1326 8.5 11ZM10.595 4C10.3313 4.45462 9.95277 4.83198 9.49734 5.0943C9.04192 5.35661 8.52557 5.49469 8 5.49469C7.47443 5.49469 6.95809 5.35661 6.50266 5.0943C6.04724 4.83198 5.66872 4.45462 5.405 4C5.14504 4.28204 5.00049 4.65143 5 5.035V6.93C5.00008 7.02815 5.02904 7.1241 5.08328 7.2059C5.13752 7.2877 5.21463 7.35172 5.305 7.39L7.805 8.46C7.86669 8.48613 7.933 8.49959 8 8.49959C8.067 8.49959 8.13331 8.48613 8.195 8.46L10.695 7.39C10.7854 7.35172 10.8625 7.2877 10.9167 7.2059C10.971 7.1241 10.9999 7.02815 11 6.93V5.035C10.9995 4.65143 10.855 4.28204 10.595 4ZM10 2.5C10 2.10444 9.8827 1.71776 9.66294 1.38886C9.44318 1.05996 9.13082 0.803617 8.76537 0.652242C8.39992 0.500867 7.99778 0.46126 7.60982 0.53843C7.22186 0.615601 6.86549 0.806082 6.58579 1.08579C6.30608 1.36549 6.1156 1.72186 6.03843 2.10982C5.96126 2.49778 6.00087 2.89992 6.15224 3.26537C6.30362 3.63082 6.55996 3.94318 6.88886 4.16294C7.21776 4.3827 7.60444 4.5 8 4.5C8.53043 4.5 9.03914 4.28929 9.41421 3.91422C9.78929 3.53914 10 3.03043 10 2.5Z" fill="#7E7E7E"/>
</g>
<defs>
<clipPath id="clip0_4721_557088">
<rect width="16" height="16" fill="white"/>
</clipPath>
</defs>
</svg>
