<svg width="32" height="32" viewBox="0 0 124 124" fill="none" xmlns="http://www.w3.org/2000/svg">
<style>
    #second {
      fill: white;
    }
    @media (prefers-color-scheme: light) {
      #second {
        fill: #fff;
      }
    }
</style>
<path id="accent" d="M34.2798 32.5631L89.3107 32.424L89.0168 90.9546H123.517L123.553 0L34.2798 0.103322V32.5631Z" fill="#778CF8"/>
<path id="second" d="M34.2797 0.104492H17.9643C16.8647 0.104492 15.7288 0.17304 15.7288 0.17304C11.2919 0.729368 7.44282 2.81162 4.28939 6.45656C1.13595 10.1373 0.512939 13.2617 0 18.052L0.330185 88.3858L34.3161 56.9334V0.104492H34.2797Z"/>
<path id="second" d="M123.518 90.9547C104.526 90.9547 63.024 90.9199 63.024 90.9199L28.0103 123.483C48.6524 123.483 76.6626 123.345 97.3038 123.379C101.08 123.379 104.966 123.379 108.522 122.164C113.179 120.602 116.845 117.061 119.191 113.034C121.868 108.416 122.857 103.556 123.408 98.4184C123.481 97.8978 123.554 90.9547 123.554 90.9547H123.518Z"/>
</svg>
