<svg width="14" height="8" viewBox="0 0 14 8" fill="none" xmlns="http://www.w3.org/2000/svg">
<path d="M2.19336 2.99993H0.860026C0.683215 2.99993 0.513646 3.07017 0.388621 3.19519C0.263597 3.32022 0.193359 3.48979 0.193359 3.6666C0.193359 3.84341 0.263597 4.01298 0.388621 4.138C0.513646 4.26303 0.683215 4.33326 0.860026 4.33326H2.19336C2.37017 4.33326 2.53974 4.26303 2.66476 4.138C2.78979 4.01298 2.86003 3.84341 2.86003 3.6666C2.86003 3.48979 2.78979 3.32022 2.66476 3.19519C2.53974 3.07017 2.37017 2.99993 2.19336 2.99993ZM13.38 1.1066V1.0666C13.189 0.833124 12.9477 0.645881 12.6741 0.518886C12.4004 0.39189 12.1016 0.328433 11.8 0.333264H6.51336C6.0235 0.328864 5.54905 0.504408 5.18003 0.826598C4.83536 1.13029 4.60876 1.54573 4.54003 1.99993L3.95336 5.33326C3.90291 5.62113 3.91616 5.91655 3.99218 6.19874C4.0682 6.48093 4.20514 6.74303 4.39336 6.9666C4.5806 7.18942 4.81422 7.36869 5.0779 7.4919C5.34158 7.6151 5.62898 7.67928 5.92003 7.67993H11.2134C11.6889 7.68712 12.1514 7.52464 12.5179 7.22164C12.8844 6.91865 13.131 6.49496 13.2134 6.0266L13.8 2.69326C13.8462 2.41413 13.8327 2.12837 13.7603 1.85486C13.6879 1.58135 13.5583 1.32631 13.38 1.1066ZM11.5534 1.6666L9.28669 3.5066C9.15268 3.61461 8.98208 3.6666 8.8106 3.65169C8.63912 3.63678 8.48006 3.55612 8.36669 3.4266L6.81336 1.6666H11.5534ZM11.8734 5.77993C11.8464 5.93646 11.7644 6.07821 11.6422 6.17966C11.5199 6.2811 11.3655 6.33557 11.2067 6.33326H5.92003C5.82321 6.33245 5.72774 6.31056 5.64024 6.26911C5.55274 6.22767 5.47532 6.16766 5.41336 6.09327C5.35124 6.01926 5.30595 5.93264 5.28063 5.8394C5.2553 5.74616 5.25055 5.64852 5.26669 5.55326L5.80003 2.53326L7.36669 4.3066C7.7077 4.69418 8.18536 4.93489 8.69976 4.97837C9.21417 5.02186 9.72546 4.86476 10.1267 4.53993L12.42 2.6666L11.8734 5.77993ZM2.86003 0.333264H0.860026C0.683215 0.333264 0.513646 0.403502 0.388621 0.528527C0.263597 0.653551 0.193359 0.82312 0.193359 0.999931C0.193359 1.17674 0.263597 1.34631 0.388621 1.47134C0.513646 1.59636 0.683215 1.6666 0.860026 1.6666H2.86003C3.03684 1.6666 3.20641 1.59636 3.33143 1.47134C3.45645 1.34631 3.52669 1.17674 3.52669 0.999931C3.52669 0.82312 3.45645 0.653551 3.33143 0.528527C3.20641 0.403502 3.03684 0.333264 2.86003 0.333264Z" fill="#7E7E7E"/>
</svg>
