<svg xmlns="http://www.w3.org/2000/svg" width="1em" height="1em" viewBox="0 2.4 24 24">
<path fill="currentColor" d="M12 24.9q-1.8-1.7-4.125-2.6T3 21.4v-11q2.525 0 4.85.913T12 13.95q1.825-1.725 4.15-2.637T21 10.4v11q-2.575 0-4.888.9T12 24.9Zm0-2.6q1.575-1.175 3.35-1.875T19 19.5v-6.9q-1.825.325-3.588 1.313T12 16.55q-1.65-1.65-3.413-2.638T5 12.6v6.9q1.875.225 3.65.925T12 22.3Zm0-10.9q-1.65 0-2.825-1.175T8 7.4q0-1.65 1.175-2.825T12 3.4q1.65 0 2.825 1.175T16 7.4q0 1.65-1.175 2.825T12 11.4Zm0-2q.825 0 1.413-.588T14 7.4q0-.825-.588-1.413T12 5.4q-.825 0-1.413.588T10 7.4q0 .825.588 1.413T12 9.4Zm0-2Zm0 10.05Z"/>
</svg>