<svg aria-hidden="true" style="position: absolute; width: 0; height: 0; overflow: hidden;" version="1.1" xmlns="http://www.w3.org/2000/svg" xmlns:xlink="http://www.w3.org/1999/xlink">
<defs>

<symbol id="01-dollar" viewBox="0 0 16 16">
<path d="M9.33333 7.33398H6.66667C6.31304 7.33398 5.97391 7.19351 5.72386 6.94346C5.47381 6.69341 5.33333 6.35427 5.33333 6.00065C5.33333 5.64703 5.47381 5.30789 5.72386 5.05784C5.97391 4.80779 6.31304 4.66732 6.66667 4.66732H10C10.1768 4.66732 10.3464 4.73756 10.4714 4.86258C10.5964 4.9876 10.6667 5.15717 10.6667 5.33398C10.6667 5.5108 10.7369 5.68036 10.8619 5.80539C10.987 5.93041 11.1565 6.00065 11.3333 6.00065C11.5101 6.00065 11.6797 5.93041 11.8047 5.80539C11.9298 5.68036 12 5.5108 12 5.33398C12 4.80355 11.7893 4.29484 11.4142 3.91977C11.0391 3.5447 10.5304 3.33398 10 3.33398H8.66667V2.00065C8.66667 1.82384 8.59643 1.65427 8.4714 1.52925C8.34638 1.40422 8.17681 1.33398 8 1.33398C7.82319 1.33398 7.65362 1.40422 7.5286 1.52925C7.40357 1.65427 7.33333 1.82384 7.33333 2.00065V3.33398H6.66667C5.95942 3.33398 5.28115 3.61494 4.78105 4.11503C4.28095 4.61513 4 5.29341 4 6.00065C4 6.70789 4.28095 7.38617 4.78105 7.88627C5.28115 8.38637 5.95942 8.66732 6.66667 8.66732H9.33333C9.68696 8.66732 10.0261 8.80779 10.2761 9.05784C10.5262 9.30789 10.6667 9.64703 10.6667 10.0007C10.6667 10.3543 10.5262 10.6934 10.2761 10.9435C10.0261 11.1935 9.68696 11.334 9.33333 11.334H6C5.82319 11.334 5.65362 11.2637 5.5286 11.1387C5.40357 11.0137 5.33333 10.8441 5.33333 10.6673C5.33333 10.4905 5.2631 10.3209 5.13807 10.1959C5.01305 10.0709 4.84348 10.0007 4.66667 10.0007C4.48986 10.0007 4.32029 10.0709 4.19526 10.1959C4.07024 10.3209 4 10.4905 4 10.6673C4 11.1978 4.21071 11.7065 4.58579 12.0815C4.96086 12.4566 5.46957 12.6673 6 12.6673H7.33333V14.0007C7.33333 14.1775 7.40357 14.347 7.5286 14.4721C7.65362 14.5971 7.82319 14.6673 8 14.6673C8.17681 14.6673 8.34638 14.5971 8.4714 14.4721C8.59643 14.347 8.66667 14.1775 8.66667 14.0007V12.6673H9.33333C10.0406 12.6673 10.7189 12.3864 11.219 11.8863C11.719 11.3862 12 10.7079 12 10.0007C12 9.29341 11.719 8.61513 11.219 8.11503C10.7189 7.61494 10.0406 7.33398 9.33333 7.33398Z" fill="currentColor"/>
</symbol>

<symbol id="02-gold" viewBox="0 0 16 16">
<path d="M7.8 1.558a.556.556 0 0 0-.252.264c-.042.113-.036.933.008 1.039.115.276.5.374.731.187.182-.148.196-.201.187-.746l-.007-.484-.082-.102a.624.624 0 0 0-.174-.149.556.556 0 0 0-.411-.009m-4 .666a.56.56 0 0 0-.252.264.574.574 0 0 0 .009.373c.046.108.83.885.931.924.275.104.613-.087.651-.367.032-.24.009-.278-.441-.734-.23-.233-.457-.44-.504-.46a.574.574 0 0 0-.394 0m8 .001c-.106.048-.883.834-.919.93-.136.366.18.72.576.646.084-.016.173-.09.525-.437.234-.229.441-.456.461-.503a.48.48 0 0 0-.449-.673.563.563 0 0 0-.194.037M6.413 4.176l-.2.041c-.382.077-.813.418-.984.778-.064.134-.178.562-.435 1.627-.334 1.383-.349 1.457-.349 1.725 0 .192.014.315.043.393l.043.113h-.753c-.827 0-.927.014-1.218.16-.088.045-.244.16-.347.258-.319.3-.343.366-.746 2.062-.377 1.581-.394 1.692-.305 2.036.13.504.566.94 1.07 1.071.129.034.5.04 2.435.04 2.504 0 2.42.005 2.751-.162.156-.079.484-.371.552-.491l.03-.054.03.054c.068.12.396.412.552.491.331.167.247.162 2.751.162 1.935 0 2.306-.006 2.435-.04.501-.13.941-.569 1.071-1.068.089-.339.07-.46-.306-2.039-.403-1.696-.427-1.762-.746-2.062a1.852 1.852 0 0 0-.347-.258c-.29-.146-.392-.16-1.209-.16h-.744l.016-.073c.062-.278.074-.387.061-.54-.008-.095-.171-.827-.363-1.627-.26-1.089-.369-1.496-.432-1.626a1.673 1.673 0 0 0-.636-.641c-.346-.175-.28-.169-2.053-.175a62.738 62.738 0 0 0-1.667.005m3.235 1.048c.118.061.205.15.242.247.06.158.67 2.779.67 2.878a.546.546 0 0 1-.15.348c-.154.135-.058.13-2.41.13-2.352 0-2.256.005-2.41-.13a.546.546 0 0 1-.15-.346c0-.09.546-2.447.653-2.818a.5.5 0 0 1 .267-.315c.07-.037.271-.043 1.634-.044 1.477-.001 1.56.002 1.654.05M6.333 9.883c.21.108.223.144.558 1.557l.336 1.425c.063.285-.092.558-.355.624-.173.044-4.237.044-4.411 0a.5.5 0 0 1-.353-.363c-.031-.13-.022-.176.306-1.557.2-.842.359-1.457.391-1.509a.493.493 0 0 1 .306-.219c.061-.015.709-.023 1.609-.019 1.465.006 1.51.007 1.613.061m6.663-.005a.584.584 0 0 1 .281.383c.015.069.167.708.337 1.419.299 1.252.308 1.298.278 1.436a.486.486 0 0 1-.353.373c-.174.044-4.238.044-4.411 0a.5.5 0 0 1-.353-.363c-.031-.13-.022-.176.306-1.557.2-.842.359-1.457.39-1.509a.597.597 0 0 1 .138-.146c.116-.084.331-.093 1.951-.09 1.258.003 1.339.006 1.436.054m-4.542.129c-.025.091-.134.541-.243 1-.108.458-.203.833-.21.833-.008 0-.092-.327-.186-.727a69.897 69.897 0 0 0-.242-1l-.071-.273H8.5l-.046.167" fill="currentColor" fill-rule="evenodd"/>
</symbol>

<symbol id="03-mace" viewBox="0 0 16 16">
<path d="M10.33.038a.968.968 0 0 0-.718.803 1.02 1.02 0 0 0 .133.575c.145.218 2.858 3.807 2.959 3.912.06.063.175.147.256.187.128.063.179.072.4.072.215 0 .272-.01.373-.064a.9.9 0 0 0 .441-.439.683.683 0 0 0 .096-.404.64.64 0 0 0-.089-.385c-.103-.202-2.901-3.922-3.046-4.05a.884.884 0 0 0-.454-.216c-.184-.034-.175-.034-.351.009M8.44 1.852a5.269 5.269 0 0 0-3.245 2.51l-.119.215 1.636 2.171c1.39 1.844 1.645 2.171 1.696 2.164.15-.021.614-.152.825-.233a5.322 5.322 0 0 0 2.686-2.28l.158-.273-1.328-1.763-1.632-2.168c-.25-.334-.315-.406-.37-.406-.037 0-.175.028-.307.063m-4.917 3.28c-.144.047-.373.201-.447.302-.153.206-.183.3-.183.579 0 .248.006.278.082.414.095.172 2.822 3.799 2.982 3.968.06.063.187.153.282.199.148.074.2.085.373.084.276-.001.482-.094.681-.309a.745.745 0 0 0 .199-.332c.03-.097.055-.222.055-.277 0-.136-.083-.395-.163-.509-.3-.433-2.924-3.877-3.002-3.941a.83.83 0 0 0-.542-.207.97.97 0 0 0-.317.029m8.005 3.251c-.15.136-.369.316-.486.401-.206.148-.61.401-.677.423-.024.008.411.63.544.777.018.02 1.491-1.054 1.491-1.087 0-.018-.565-.75-.582-.755a2.332 2.332 0 0 0-.29.241m.718 1.845c-.483.363-.721.558-.709.58.055.09 2.802 3.725 2.873 3.8.046.049.161.127.256.174.154.075.198.085.4.084.178 0 .256-.013.359-.06.219-.1.35-.228.456-.444a.697.697 0 0 0 .1-.379 1.117 1.117 0 0 0-.044-.321c-.035-.104-.348-.538-1.289-1.786l-1.445-1.922a3.262 3.262 0 0 0-.216-.272 22.33 22.33 0 0 0-.741.546M1.98 12.227a1.357 1.357 0 0 0-.897.715c-.122.256-.15.409-.15.819v.346H.841c-.263 0-.615.246-.753.528-.073.148-.075.163-.075.605 0 .43.004.458.061.539.034.047.1.113.147.147l.086.061 4.346.008c3.038.005 4.377-.001 4.446-.021a.46.46 0 0 0 .302-.279c.036-.094.042-.189.034-.499-.008-.355-.015-.395-.086-.55-.134-.292-.477-.539-.747-.539h-.089l-.013-.42c-.014-.447-.049-.604-.191-.845a1.443 1.443 0 0 0-.86-.616c-.261-.055-5.214-.054-5.469.001" fill="currentColor" fill-rule="evenodd"/>
</symbol>

<symbol id="04-save-planet" viewBox="0 0 16 16">
<path d="M8.755.48c-.043.018-.075.08-.129.258a6.335 6.335 0 0 1-.664 1.46 5.566 5.566 0 0 0-.25.46 1.91 1.91 0 0 0-.138.574c-.001.095.005.101.113.128.473.12.686.214.965.426l.177.134.139-.103c.296-.22.519-.319.965-.428l.294-.072.049-.185c.107-.404.056-.937-.13-1.358C9.928 1.282 9.452.75 9.048.548 8.882.465 8.826.452 8.755.48m2.938 2.8c-.4.227-.99.446-1.586.59-.48.116-.73.245-1 .516-.318.318-.465.602-.562 1.082-.051.253-.042.941.016 1.207l.034.154.043-.066c.128-.196.254-.23.842-.227.692.003 1.079-.077 1.547-.318.192-.1.29-.175.495-.378.225-.224.271-.286.392-.533.157-.321.237-.603.27-.957.042-.458-.056-1.008-.201-1.122a.33.33 0 0 0-.087-.054c-.009 0-.1.048-.203.106m-5.862.027c-.151.179-.21.838-.114 1.273.209.949.843 1.521 1.856 1.675.14.021.291.038.337.038h.083l.014-.433c.011-.328.029-.488.074-.659.073-.281.205-.596.318-.763l.086-.127-.103-.088c-.176-.151-.501-.292-.903-.392a5.51 5.51 0 0 1-1.221-.447 4.105 4.105 0 0 0-.338-.157c-.012 0-.052.036-.089.08M5.159 5.74c-.253.257-.599.676-.599.725 0 .008.447.015.993.015h.992l-.164-.097a2.395 2.395 0 0 1-.813-.803.531.531 0 0 0-.097-.14c-.009 0-.149.135-.312.3m6.969.198c-.056.093-.231.279-.405.429l-.131.113h1.078l-.108-.153a3.729 3.729 0 0 0-.248-.309l-.141-.156-.045.076M4.16 7.18a4.995 4.995 0 0 0-.39 1.495l-.018.232h2.454l.018-.367c.027-.506.125-1.281.192-1.507.013-.044-.05-.046-1.077-.046H4.247l-.087.193m2.762-.107a10.203 10.203 0 0 0-.191 1.483l-.019.351H8.347l-.002-.58-.002-.58-.112-.374L8.119 7l-.589-.007-.59-.007-.018.087m3.308-.067c-.011.01-.278.026-.595.033l-.574.014-.104.267-.103.267-.001.66v.66h1.652l-.014-.22a11.78 11.78 0 0 0-.134-1.247c-.066-.404-.087-.475-.127-.434m.581.067c.055.269.125.805.15 1.154.016.22.035.463.043.54l.013.14h2.455l-.018-.194a5.435 5.435 0 0 0-.415-1.559l-.076-.167h-2.17l.018.086M3.765 9.647c.042.46.234 1.208.297 1.159l.185-.148c.395-.317 1.086-.524 1.75-.525h.251l-.017-.244a6.53 6.53 0 0 1-.018-.36v-.116H3.744l.021.234m2.967.146c.01.209.022.383.026.387.003.004.098.03.209.058.277.071.524.173.793.327.178.102.504.235.576.235.006 0 .011-.312.011-.693v-.694H6.713l.019.38m2.121.326v.706l.758.008.758.007.029-.2c.029-.21.071-.67.092-1.02l.013-.207h-1.65v.706m2.15-.592a8.598 8.598 0 0 0-.03.42 9.826 9.826 0 0 1-.067.674l-.051.367.176.173.175.172h1.387l.248-.133c.246-.134.247-.135.314-.301.131-.327.259-.886.299-1.306l.017-.18h-2.454l-.014.114m-5.414 1.141c-.461.072-.842.234-1.124.478-.458.396-.876.531-1.645.533l-.34.001v1.56c0 .858.009 1.56.02 1.56.011 0 .14-.023.287-.051.651-.126.946-.149 1.893-.149 1.061 0 1.651.052 2.56.225 1.203.23 2.581.056 3.805-.48.344-.15.429-.198 2.355-1.324 1.237-.724 1.734-1.028 1.807-1.107a.645.645 0 0 0-.147-.989.673.673 0 0 0-.516-.071c-.124.041-3.374 1.853-3.591 2.002-.084.058-.21.133-.28.165-.125.059-.14.059-1.703.067l-1.577.007-.07-.083c-.11-.131-.082-.31.061-.384.069-.036.275-.041 1.541-.042 1.361 0 1.469-.004 1.568-.049a.623.623 0 0 0 .02-1.128c-.125-.061-.142-.063-1.206-.076l-1.08-.014-.214-.074a4.034 4.034 0 0 1-.493-.229c-.33-.182-.44-.227-.731-.299-.249-.062-.939-.09-1.2-.049M.613 13.267v2.28H2v-4.56H.613v2.28" fill="currentColor" fill-rule="evenodd"/>
</symbol>

<symbol id="05-management" viewBox="0 0 16 16">
<path d="M7.583.545a2.07 2.07 0 0 0-1.259.864c-.309.48-.404 1.123-.243 1.644.108.351.254.591.518.854.41.407.834.584 1.401.584.37-.001.554-.045.907-.218.214-.104.29-.161.494-.365.267-.267.411-.506.523-.868.081-.262.087-.773.013-1.04A2.02 2.02 0 0 0 8.573.586C8.334.511 7.825.49 7.583.545M5.271 4.18a2.063 2.063 0 0 0-.197.393L5 4.787v2.266l.066.116a.552.552 0 0 0 .174.179c.059.034.671.305 1.36.601 1.124.483 1.268.539 1.4.539.132 0 .276-.056 1.4-.539a43.303 43.303 0 0 0 1.36-.601.552.552 0 0 0 .174-.179L11 7.053V4.787l-.075-.214C10.867 4.405 10.637 4 10.6 4c-.004 0-.059.081-.123.18-.173.267-.554.64-.85.831a3.444 3.444 0 0 1-1 .42c-.299.068-.955.068-1.254 0a3.444 3.444 0 0 1-1-.42c-.296-.191-.677-.564-.85-.831A2.113 2.113 0 0 0 5.4 4c-.004 0-.062.081-.129.18m-.964 3.871a.623.623 0 0 0-.176.126c-.038.042-.355.592-.706 1.223-.596 1.073-.636 1.154-.636 1.28a.487.487 0 0 0 .385.495.462.462 0 0 0 .441-.117c.055-.052.286-.436.595-.991.319-.572.519-.904.541-.899.02.004.645.267 1.389.584l1.353.576.001.376c.001.416.029.524.176.661.25.234.636.146.786-.178.041-.088.05-.174.05-.484l.001-.376 1.378-.591c1.109-.477 1.383-.585 1.409-.557.017.019.245.418.505.888.261.469.498.886.527.927.111.158.39.226.589.143.2-.083.341-.353.29-.553-.021-.086-.978-1.842-1.25-2.297-.115-.192-.263-.287-.448-.287-.109 0-.381.109-1.799.72-.919.396-1.689.72-1.71.72-.021 0-.794-.324-1.718-.72-1.145-.491-1.71-.72-1.773-.719a.555.555 0 0 0-.2.05m-2.59 3.482c-.442.08-.846.383-1.051.788-.415.823.003 1.82.885 2.108.273.089.625.089.898 0a1.502 1.502 0 0 0 .869-2.136 1.52 1.52 0 0 0-1.111-.773 1.096 1.096 0 0 0-.49.013m12 0c-.442.08-.846.383-1.051.788-.415.823.003 1.82.885 2.108.273.089.625.089.898 0a1.502 1.502 0 0 0 .869-2.136 1.52 1.52 0 0 0-1.111-.773 1.096 1.096 0 0 0-.49.013m-6.088 1.014c-.408.115-.791.42-.957.761-.298.612-.194 1.28.273 1.747a1.477 1.477 0 0 0 2.11 0 1.49 1.49 0 0 0-.541-2.459c-.231-.088-.662-.112-.885-.049" fill="currentColor" fill-rule="evenodd"/>
</symbol>

</defs>
</svg>